<svg width="76" height="16" viewBox="0 0 76 16" fill="none" xmlns="http://www.w3.org/2000/svg">
<path d="M25.6733 12.7157L23.2249 11.2818L23.05 11.5642C22.5035 12.4333 21.7384 12.8678 20.7983 12.8678C19.1806 12.8678 17.9783 11.6512 17.9783 10.0652C17.9783 8.4576 19.2025 7.2627 20.7983 7.2627C21.7602 7.2627 22.4598 7.67545 23.05 8.56618L23.2249 8.8486L25.6733 7.41476L25.4547 7.11062C24.2742 5.41607 22.7658 4.61224 20.7765 4.61224C17.0382 4.61224 15.027 7.43649 15.027 10.0869C15.027 12.7374 17.0382 15.5617 20.7765 15.5617C22.6784 15.5617 24.471 14.6057 25.4547 13.0416L25.6733 12.7157Z" fill="#C01818"/>
<path d="M25.5422 15.5182H28.9088L29.9144 13.0415H34.9643L35.9699 15.5182H39.3584L33.3247 1.02759H30.3078L31.1167 2.96112L25.5422 15.5182ZM32.4721 6.74128L33.8275 10.1521H31.073L32.4721 6.74128Z" fill="#C01818"/>
<path d="M40.7574 15.5395H43.7087V9.02201H45.6324V6.28463H43.7087V5.00285C43.7087 4.438 44.0802 3.85142 44.7801 3.85142C45.1518 3.85142 45.3918 3.91659 45.6104 4.00349L45.9386 4.13384L47.1626 1.46166L46.813 1.30958C46.2662 1.09233 45.5014 1.00543 44.9546 1.00543C43.6213 1.00543 42.5063 1.43993 41.7631 2.26548C41.1073 2.98242 40.7356 3.98177 40.7356 5.08975V6.2629H39.424V9.00029H40.7356L40.7574 15.5395Z" fill="#C01818"/>
<path d="M1.10153 0.940491V15.518H4.31507V7.17559L7.44123 9.47846L10.5455 7.17559V15.518H13.7591L13.7809 0.940491L7.44123 5.69828L1.10153 0.940491Z" fill="#C01818"/>
<path d="M52.322 4.63379C48.6059 4.63379 46.5944 7.43631 46.5944 10.0868C46.5944 12.7373 48.6059 15.5397 52.322 15.5397C54.0273 15.5181 55.6229 14.7577 56.869 13.3456L54.4644 12.042C53.8521 12.6721 53.0874 12.998 52.2564 12.998C51.0324 12.998 49.9609 12.1941 49.6768 11.1296H57.722V10.4126C57.722 6.43697 54.552 4.63379 52.322 4.63379ZM49.7423 8.73983C50.136 7.74046 50.9663 7.17562 52.0378 7.17562C53.1308 7.17562 53.9831 7.74046 54.4203 8.76156L49.7423 8.73983Z" fill="#C01818"/>
<path d="M64.4108 4.63379C60.6947 4.63379 58.6832 7.43631 58.6832 10.0868C58.6832 12.7373 60.6947 15.5397 64.4108 15.5397C66.1161 15.5181 67.7124 14.7577 68.9585 13.3456L66.5533 12.042C65.9416 12.6721 65.1762 12.998 64.3453 12.998C63.1213 12.998 62.0504 12.1941 61.7656 11.1296H69.8108V10.4126C69.8108 6.43697 66.6629 4.63379 64.4108 4.63379ZM61.8318 8.73983C62.2249 7.74046 63.0558 7.1539 64.1267 7.17562C65.2197 7.17562 66.0726 7.74046 66.5098 8.76156L61.8318 8.73983Z" fill="#C01818"/>
<path d="M71.6867 4.75446V5.17449H70.9849V7.34905H70.4562V5.17449H69.7544V4.75446H71.6867Z" fill="#C01818"/>
<path d="M74.9436 4.75446V7.34905H74.4156V5.66145L73.7098 7.34905H73.3096L72.6 5.66145V7.34905H72.072V4.75446H72.672L73.5094 6.68367L74.3475 4.75446H74.9436Z" fill="#C01818"/>
</svg>
